# xmcd CD database file
#
# Track frame offsets:
#	150
#	23953
#	46395
#	69067
#	93955
#	124782
#	148316
#	178178
#	200668
#	240625
#
# Disc length: 3377 seconds
#
# Revision: 0
# Processed by: cddbd v1.5.2PL0 Copyright (c) Steve Scherf et al.
# Submitted via: CDex 1.70beta2
#
DISCID=8d0d2f0a
DTITLE=Varius - Euro Jazz 2008
DYEAR=2008
DGENRE=Jazz
TTITLE0=Jacoustic inc - Stolen moments
TTITLE1=Pivec Organic Quartet - Dont get any ideas
TTITLE2=Deodato Siquir Trio - Haya
TTITLE3=Tuule Kann, Jaak Sooaar - Ohtu llu
TTITLE4=George Kontrafouris feat Sami Linna - V blues
TTITLE5=Iristho en Parodo - Ακρωτήρι
TTITLE6=Sascha Ley - The lovers eye
TTITLE7=Apostolis Anthimos trio - Bar wah wah
TTITLE8=Andre Fernandes quartet - Dog speak
TTITLE9=12 Twelve - Mr Gesus
EXTD=YEAR: 2008
EXTT0=
EXTT1=
EXTT2=
EXTT3=
EXTT4=
EXTT5=
EXTT6=
EXTT7=
EXTT8=
EXTT9=
PLAYORDER=
